<?xml version="1.0" standalone="no"?>
<!DOCTYPE svg PUBLIC "-//W3C//DTD SVG 20010904//EN"
 "http://www.w3.org/TR/2001/REC-SVG-20010904/DTD/svg10.dtd">
<svg version="1.0" xmlns="http://www.w3.org/2000/svg"
 width="768.000000pt" height="768.000000pt" viewBox="0 0 768.000000 768.000000"
 preserveAspectRatio="xMidYMid meet">

<g transform="translate(0.000000,768.000000) scale(0.100000,-0.100000)"
fill="#000000" stroke="none">
<path d="M3665 5629 c-578 -54 -1100 -378 -1382 -856 -169 -288 -247 -576
-246 -913 0 -262 43 -464 149 -701 250 -560 769 -945 1404 -1041 275 -41 602
-7 869 92 322 118 565 287 781 540 282 331 439 814 402 1239 -27 302 -106 549
-258 800 -292 481 -812 797 -1385 841 -150 11 -204 11 -334 -1z m455 -285
c176 -30 390 -110 542 -202 106 -65 247 -178 258 -208 10 -26 14 -671 4 -709
-3 -14 -10 -25 -15 -25 -5 0 -98 50 -206 111 -109 62 -268 151 -353 199 -85
48 -232 130 -326 183 -95 54 -179 97 -187 97 -17 0 -166 -82 -702 -389 -203
-116 -373 -211 -377 -211 -4 0 -8 168 -8 374 l0 374 63 53 c244 204 581 342
896 369 128 10 295 4 411 -16z m-1643 -1171 c-4 -219 -7 -537 -7 -708 l-1
-310 -21 39 c-38 73 -96 240 -119 346 -20 90 -24 133 -24 305 0 227 13 317 69
486 34 103 93 239 103 239 4 0 3 -179 0 -397z m2776 332 c3 -11 20 -58 37
-105 70 -191 82 -256 87 -490 5 -228 -3 -307 -48 -465 -22 -74 -69 -198 -97
-253 -14 -27 -18 -29 -24 -15 -8 22 -10 1339 -2 1370 l6 23 18 -23 c9 -12 19
-31 23 -42z m-1123 -214 c273 -151 431 -241 677 -382 l113 -64 0 -528 0 -527
-307 2 -308 3 -3 418 -2 417 -460 0 -460 0 0 -420 0 -420 -312 2 -313 3 -3
521 -2 522 272 153 c402 225 643 360 733 411 44 26 82 46 85 47 3 1 134 -70
290 -158z"/>
<path d="M3520 711 c0 -6 4 -13 10 -16 6 -3 7 1 4 9 -7 18 -14 21 -14 7z"/>
<path d="M1005 598 c-56 -57 -114 -81 -200 -82 -54 -1 -80 4 -114 21 -58 30
-66 21 -9 -9 61 -32 194 -33 254 -1 35 19 114 94 114 108 0 9 -4 5 -45 -37z"/>
<path d="M570 627 c0 -2 15 -16 33 -33 l32 -29 -29 33 c-28 30 -36 37 -36 29z"/>
<path d="M968 623 c7 -3 16 -2 19 1 4 3 -2 6 -13 5 -11 0 -14 -3 -6 -6z"/>
</g>
</svg>
